{
	"asset":{
		"generator":"Khronos glTF Blender I/O v3.6.27",
		"version":"2.0"
	},
	"extensionsUsed":[
		"KHR_materials_specular",
		"KHR_materials_ior"
	],
	"scene":0,
	"scenes":[
		{
			"name":"Scene",
			"nodes":[
				7
			]
		}
	],
	"nodes":[
		{
			"mesh":0,
			"name":"36_Node"
		},
		{
			"mesh":1,
			"name":"40_Node"
		},
		{
			"mesh":2,
			"name":"61_Node"
		},
		{
			"mesh":3,
			"name":"8_Node"
		},
		{
			"mesh":4,
			"name":"Pattern2D_3805002_Node"
		},
		{
			"mesh":5,
			"name":"Pattern2D_3805003_Node"
		},
		{
			"children":[
				0,
				1,
				2,
				3,
				4,
				5
			],
			"name":"Cloth"
		},
		{
			"children":[
				6
			],
			"name":"asdfgh_Scene_Node"
		}
	],
	"materials":[
		{
			"doubleSided":true,
			"extensions":{
				"KHR_materials_specular":{
					"specularColorFactor":[
						0.030664108073310676,
						0.030664108073310676,
						0.030664108073310676
					]
				},
				"KHR_materials_ior":{
					"ior":1.4500000476837158
				}
			},
			"name":"Procedral White Silk",
			"pbrMetallicRoughness":{
				"metallicFactor":0.0258620698004961,
				"roughnessFactor":0.5301724076271057
			}
		}
	],
	"meshes":[
		{
			"name":"36",
			"primitives":[
				{
					"attributes":{
						"POSITION":0,
						"NORMAL":1,
						"TEXCOORD_0":2,
						"TEXCOORD_1":3
					},
					"indices":4,
					"material":0
				}
			]
		},
		{
			"name":"40",
			"primitives":[
				{
					"attributes":{
						"POSITION":5,
						"NORMAL":6,
						"TEXCOORD_0":7,
						"TEXCOORD_1":8
					},
					"indices":9,
					"material":0
				}
			]
		},
		{
			"name":"61",
			"primitives":[
				{
					"attributes":{
						"POSITION":10,
						"NORMAL":11,
						"TEXCOORD_0":12,
						"TEXCOORD_1":13
					},
					"indices":14,
					"material":0
				}
			]
		},
		{
			"name":"8",
			"primitives":[
				{
					"attributes":{
						"POSITION":15,
						"NORMAL":16,
						"TEXCOORD_0":17,
						"TEXCOORD_1":18
					},
					"indices":19,
					"material":0
				}
			]
		},
		{
			"name":"Pattern2D_3805002",
			"primitives":[
				{
					"attributes":{
						"POSITION":20,
						"NORMAL":21,
						"TEXCOORD_0":22,
						"TEXCOORD_1":23
					},
					"indices":24,
					"material":0
				}
			]
		},
		{
			"name":"Pattern2D_3805003",
			"primitives":[
				{
					"attributes":{
						"POSITION":25,
						"NORMAL":26,
						"TEXCOORD_0":27,
						"TEXCOORD_1":28
					},
					"indices":29,
					"material":0
				}
			]
		}
	],
	"accessors":[
		{
			"bufferView":0,
			"componentType":5126,
			"count":371,
			"max":[
				0.3288515508174896,
				1.5529435873031616,
				0.03813144192099571
			],
			"min":[
				0.17826293408870697,
				1.3543169498443604,
				-0.10982853919267654
			],
			"type":"VEC3"
		},
		{
			"bufferView":1,
			"componentType":5126,
			"count":371,
			"type":"VEC3"
		},
		{
			"bufferView":2,
			"componentType":5126,
			"count":371,
			"type":"VEC2"
		},
		{
			"bufferView":3,
			"componentType":5126,
			"count":371,
			"type":"VEC2"
		},
		{
			"bufferView":4,
			"componentType":5123,
			"count":1347,
			"type":"SCALAR"
		},
		{
			"bufferView":5,
			"componentType":5126,
			"count":1686,
			"max":[
				0.23081162571907043,
				1.6227010488510132,
				0.13265778124332428
			],
			"min":[
				-0.23251280188560486,
				0.9523807168006897,
				-0.03459470346570015
			],
			"type":"VEC3"
		},
		{
			"bufferView":6,
			"componentType":5126,
			"count":1686,
			"type":"VEC3"
		},
		{
			"bufferView":7,
			"componentType":5126,
			"count":1686,
			"type":"VEC2"
		},
		{
			"bufferView":8,
			"componentType":5126,
			"count":1686,
			"type":"VEC2"
		},
		{
			"bufferView":9,
			"componentType":5123,
			"count":8526,
			"type":"SCALAR"
		},
		{
			"bufferView":10,
			"componentType":5126,
			"count":343,
			"max":[
				-0.17912901937961578,
				1.551098346710205,
				0.03759672865271568
			],
			"min":[
				-0.33028683066368103,
				1.3533194065093994,
				-0.10941994935274124
			],
			"type":"VEC3"
		},
		{
			"bufferView":11,
			"componentType":5126,
			"count":343,
			"type":"VEC3"
		},
		{
			"bufferView":12,
			"componentType":5126,
			"count":343,
			"type":"VEC2"
		},
		{
			"bufferView":13,
			"componentType":5126,
			"count":343,
			"type":"VEC2"
		},
		{
			"bufferView":14,
			"componentType":5123,
			"count":1329,
			"type":"SCALAR"
		},
		{
			"bufferView":15,
			"componentType":5126,
			"count":1844,
			"max":[
				0.23081162571907043,
				1.634411096572876,
				-0.0046945596113801
			],
			"min":[
				-0.23251280188560486,
				0.9476690888404846,
				-0.15425041317939758
			],
			"type":"VEC3"
		},
		{
			"bufferView":16,
			"componentType":5126,
			"count":1844,
			"type":"VEC3"
		},
		{
			"bufferView":17,
			"componentType":5126,
			"count":1844,
			"type":"VEC2"
		},
		{
			"bufferView":18,
			"componentType":5126,
			"count":1844,
			"type":"VEC2"
		},
		{
			"bufferView":19,
			"componentType":5123,
			"count":9174,
			"type":"SCALAR"
		},
		{
			"bufferView":20,
			"componentType":5126,
			"count":35,
			"max":[
				0.08335354924201965,
				1.645377516746521,
				-0.019161317497491837
			],
			"min":[
				-0.08518695831298828,
				1.621827244758606,
				-0.07904675602912903
			],
			"type":"VEC3"
		},
		{
			"bufferView":21,
			"componentType":5126,
			"count":35,
			"type":"VEC3"
		},
		{
			"bufferView":22,
			"componentType":5126,
			"count":35,
			"type":"VEC2"
		},
		{
			"bufferView":23,
			"componentType":5126,
			"count":35,
			"type":"VEC2"
		},
		{
			"bufferView":24,
			"componentType":5123,
			"count":66,
			"type":"SCALAR"
		},
		{
			"bufferView":25,
			"componentType":5126,
			"count":32,
			"max":[
				0.08335354924201965,
				1.6281676292419434,
				0.044731318950653076
			],
			"min":[
				-0.08518695831298828,
				1.563936710357666,
				-0.028009355068206787
			],
			"type":"VEC3"
		},
		{
			"bufferView":26,
			"componentType":5126,
			"count":32,
			"type":"VEC3"
		},
		{
			"bufferView":27,
			"componentType":5126,
			"count":32,
			"type":"VEC2"
		},
		{
			"bufferView":28,
			"componentType":5126,
			"count":32,
			"type":"VEC2"
		},
		{
			"bufferView":29,
			"componentType":5123,
			"count":78,
			"type":"SCALAR"
		}
	],
	"bufferViews":[
		{
			"buffer":0,
			"byteLength":4452,
			"byteOffset":0,
			"target":34962
		},
		{
			"buffer":0,
			"byteLength":4452,
			"byteOffset":4452,
			"target":34962
		},
		{
			"buffer":0,
			"byteLength":2968,
			"byteOffset":8904,
			"target":34962
		},
		{
			"buffer":0,
			"byteLength":2968,
			"byteOffset":11872,
			"target":34962
		},
		{
			"buffer":0,
			"byteLength":2694,
			"byteOffset":14840,
			"target":34963
		},
		{
			"buffer":0,
			"byteLength":20232,
			"byteOffset":17536,
			"target":34962
		},
		{
			"buffer":0,
			"byteLength":20232,
			"byteOffset":37768,
			"target":34962
		},
		{
			"buffer":0,
			"byteLength":13488,
			"byteOffset":58000,
			"target":34962
		},
		{
			"buffer":0,
			"byteLength":13488,
			"byteOffset":71488,
			"target":34962
		},
		{
			"buffer":0,
			"byteLength":17052,
			"byteOffset":84976,
			"target":34963
		},
		{
			"buffer":0,
			"byteLength":4116,
			"byteOffset":102028,
			"target":34962
		},
		{
			"buffer":0,
			"byteLength":4116,
			"byteOffset":106144,
			"target":34962
		},
		{
			"buffer":0,
			"byteLength":2744,
			"byteOffset":110260,
			"target":34962
		},
		{
			"buffer":0,
			"byteLength":2744,
			"byteOffset":113004,
			"target":34962
		},
		{
			"buffer":0,
			"byteLength":2658,
			"byteOffset":115748,
			"target":34963
		},
		{
			"buffer":0,
			"byteLength":22128,
			"byteOffset":118408,
			"target":34962
		},
		{
			"buffer":0,
			"byteLength":22128,
			"byteOffset":140536,
			"target":34962
		},
		{
			"buffer":0,
			"byteLength":14752,
			"byteOffset":162664,
			"target":34962
		},
		{
			"buffer":0,
			"byteLength":14752,
			"byteOffset":177416,
			"target":34962
		},
		{
			"buffer":0,
			"byteLength":18348,
			"byteOffset":192168,
			"target":34963
		},
		{
			"buffer":0,
			"byteLength":420,
			"byteOffset":210516,
			"target":34962
		},
		{
			"buffer":0,
			"byteLength":420,
			"byteOffset":210936,
			"target":34962
		},
		{
			"buffer":0,
			"byteLength":280,
			"byteOffset":211356,
			"target":34962
		},
		{
			"buffer":0,
			"byteLength":280,
			"byteOffset":211636,
			"target":34962
		},
		{
			"buffer":0,
			"byteLength":132,
			"byteOffset":211916,
			"target":34963
		},
		{
			"buffer":0,
			"byteLength":384,
			"byteOffset":212048,
			"target":34962
		},
		{
			"buffer":0,
			"byteLength":384,
			"byteOffset":212432,
			"target":34962
		},
		{
			"buffer":0,
			"byteLength":256,
			"byteOffset":212816,
			"target":34962
		},
		{
			"buffer":0,
			"byteLength":256,
			"byteOffset":213072,
			"target":34962
		},
		{
			"buffer":0,
			"byteLength":156,
			"byteOffset":213328,
			"target":34963
		}
	],
	"buffers":[
		{
			"byteLength":213484,
			"uri":"S%20WHITE.bin"
		}
	]
}
